<svg width="1190" height="900" viewBox="0 0 1190 900" fill="none" xmlns="http://www.w3.org/2000/svg">
<g clip-path="url(#clip0)">
<rect width="1190" height="900" fill="#8977F8"/>
<path d="M501.057 -45.9415C532.308 -15.8552 563.163 14.1111 597.285 43.1698C641.211 80.5768 697.275 128.064 739.5 135.834C793.308 145.734 823.862 123.205 855.518 110.722C883.164 99.8194 915.91 81.8871 975.215 106.34C1064.68 143.229 1124.23 235.132 1175.26 295.372C1199.14 323.554 1238.41 368.181 1262.69 361.526" stroke="#FFA0AC" stroke-opacity="0.2" stroke-width="10" stroke-linecap="round" stroke-linejoin="round"/>
<path d="M90 819.5C90 862.854 54.8544 898 11.5 898C-31.8544 898 -67 862.854 -67 819.5C-67 776.146 -31.8544 741 11.5 741C54.8544 741 90 776.146 90 819.5Z" fill="#705EDF"/>
<path fill-rule="evenodd" clip-rule="evenodd" d="M762.991 985.239C760.987 977.721 753.268 973.25 745.75 975.254C738.232 977.257 733.761 984.976 735.765 992.494C737.769 1000.01 745.488 1004.48 753.006 1002.48C760.524 1000.48 764.994 992.757 762.991 985.239ZM817.892 999.767C815.888 992.249 808.169 987.778 800.651 989.782C793.133 991.786 788.662 999.505 790.666 1007.02C792.67 1014.54 800.389 1019.01 807.907 1017.01C815.425 1015 819.895 1007.29 817.892 999.767ZM782.737 936.237C790.255 934.234 797.974 938.704 799.977 946.222C801.981 953.741 797.51 961.46 789.992 963.463C782.474 965.467 774.755 960.996 772.751 953.478C770.748 945.96 775.218 938.241 782.737 936.237ZM839.235 888.376C837.232 880.858 829.513 876.387 821.995 878.391C814.476 880.394 810.006 888.113 812.009 895.632C814.013 903.15 821.732 907.62 829.25 905.617C836.768 903.613 841.239 895.894 839.235 888.376ZM846.132 944.658C852.312 949.385 853.489 958.227 848.762 964.407C844.035 970.587 835.193 971.765 829.013 967.037C822.833 962.31 821.655 953.468 826.383 947.288C831.11 941.108 839.952 939.931 846.132 944.658ZM884.609 894.508C882.605 886.99 874.886 882.52 867.368 884.523C859.85 886.527 855.379 894.246 857.383 901.764C859.387 909.282 867.106 913.753 874.624 911.749C882.142 909.746 886.613 902.027 884.609 894.508ZM886.63 1025.19C894.149 1023.18 901.868 1027.65 903.871 1035.17C905.875 1042.69 901.404 1050.41 893.886 1052.41C886.368 1054.42 878.649 1049.95 876.645 1042.43C874.642 1034.91 879.112 1027.19 886.63 1025.19ZM867.576 1008.4C865.572 1000.88 857.853 996.407 850.335 998.411C842.817 1000.41 838.346 1008.13 840.35 1015.65C842.353 1023.17 850.072 1027.64 857.591 1025.64C865.109 1023.63 869.579 1015.91 867.576 1008.4ZM1100.78 1039.73C1093.47 1042.39 1085.38 1038.62 1082.73 1031.3C1080.07 1023.99 1083.84 1015.91 1091.15 1013.25C1098.47 1010.59 1106.55 1014.37 1109.21 1021.68C1111.87 1028.99 1108.09 1037.07 1100.78 1039.73ZM1031 1001.35C1033.66 1008.66 1041.75 1012.43 1049.06 1009.78C1056.37 1007.12 1060.14 999.035 1057.48 991.722C1054.83 984.41 1046.74 980.637 1039.43 983.295C1032.12 985.953 1028.35 994.036 1031 1001.35ZM1036.34 1071.48C1029.03 1074.14 1020.95 1070.37 1018.29 1063.06C1015.63 1055.74 1019.4 1047.66 1026.72 1045C1034.03 1042.34 1042.11 1046.12 1044.77 1053.43C1047.43 1060.74 1043.66 1068.82 1036.34 1071.48ZM974.056 1020.17C976.714 1027.48 984.797 1031.26 992.11 1028.6C999.422 1025.94 1003.2 1017.86 1000.54 1010.54C997.879 1003.23 989.796 999.458 982.483 1002.12C975.171 1004.77 971.398 1012.86 974.056 1020.17ZM1029.55 963.944C1022.24 966.603 1014.16 962.83 1011.5 955.517C1008.84 948.205 1012.62 940.122 1019.93 937.464C1027.24 934.806 1035.32 938.579 1037.98 945.891C1040.64 953.203 1036.87 961.286 1029.55 963.944ZM950 1066.68C952.659 1073.99 960.741 1077.76 968.054 1075.1C975.366 1072.44 979.139 1064.36 976.481 1057.05C973.823 1049.74 965.74 1045.96 958.428 1048.62C951.115 1051.28 947.342 1059.36 950 1066.68ZM915.658 1001.59C908.345 1004.25 900.262 1000.47 897.604 993.16C894.946 985.848 898.719 977.765 906.031 975.107C913.344 972.449 921.427 976.222 924.085 983.534C926.743 990.846 922.97 998.929 915.658 1001.59ZM949.56 982.959C952.218 990.271 960.301 994.044 967.613 991.386C974.926 988.728 978.699 980.645 976.04 973.333C973.382 966.02 965.299 962.247 957.987 964.906C950.675 967.564 946.902 975.647 949.56 982.959ZM1047.83 860.79C1040.52 863.448 1032.44 859.675 1029.78 852.363C1027.12 845.05 1030.89 836.968 1038.21 834.309C1045.52 831.651 1053.6 835.424 1056.26 842.737C1058.92 850.049 1055.15 858.132 1047.83 860.79ZM981.571 843.21C984.229 850.523 992.312 854.296 999.624 851.638C1006.94 848.979 1010.71 840.896 1008.05 833.584C1005.39 826.272 997.31 822.499 989.998 825.157C982.685 827.815 978.912 835.898 981.571 843.21ZM1019.35 911.989C1012.04 914.647 1003.96 910.874 1001.3 903.562C998.641 896.249 1002.41 888.166 1009.73 885.508C1017.04 882.85 1025.12 886.623 1027.78 893.935C1030.44 901.248 1026.67 909.331 1019.35 911.989ZM946.165 929.19C948.823 936.502 956.906 940.275 964.218 937.617C971.531 934.959 975.304 926.876 972.646 919.563C969.987 912.251 961.905 908.478 954.592 911.136C947.28 913.794 943.507 921.877 946.165 929.19ZM966.507 809.434C959.195 812.092 951.112 808.319 948.454 801.007C945.796 793.694 949.569 785.612 956.881 782.953C964.194 780.295 972.276 784.068 974.935 791.381C977.593 798.693 973.82 806.776 966.507 809.434ZM889.683 867.698C892.341 875.011 900.424 878.784 907.737 876.125C915.049 873.467 918.822 865.384 916.164 858.072C913.506 850.76 905.423 846.987 898.11 849.645C890.798 852.303 887.025 860.386 889.683 867.698ZM895.247 952.353C887.934 955.011 879.852 951.238 877.193 943.926C874.535 936.613 878.308 928.53 885.621 925.872C892.933 923.214 901.016 926.987 903.674 934.299C906.332 941.612 902.559 949.695 895.247 952.353ZM888.358 813.832C891.016 821.145 899.099 824.918 906.411 822.26C913.724 819.601 917.497 811.519 914.838 804.206C912.18 796.894 904.097 793.121 896.785 795.779C889.473 798.437 885.7 806.52 888.358 813.832ZM959.917 880.444C952.605 883.102 944.522 879.329 941.863 872.017C939.205 864.705 942.978 856.622 950.291 853.964C957.603 851.305 965.686 855.078 968.344 862.391C971.002 869.703 967.229 877.786 959.917 880.444ZM1268.6 1063.48C1270.56 1063.64 1272.59 1063.39 1274.56 1062.67C1281.47 1060.16 1285.22 1052.81 1283.37 1045.84L1297.94 1028.44C1300.82 1029.16 1303.95 1028.98 1306.9 1027.71C1314.04 1024.64 1317.35 1016.36 1314.28 1009.21C1314.25 1009.15 1314.23 1009.09 1314.2 1009.03L1374.09 937.51C1378.05 941.204 1383.97 942.429 1389.26 940.154C1396.41 937.082 1399.72 928.797 1396.65 921.649C1395.64 919.299 1394.06 917.364 1392.15 915.935L1677.06 575.711L1930.76 1527.68L1127.52 1231.96L1268.6 1063.48ZM1392.15 915.935C1388.25 913.016 1382.94 912.204 1378.14 914.266C1370.99 917.337 1367.69 925.622 1370.76 932.771C1371.55 934.623 1372.7 936.218 1374.09 937.51L1392.15 915.935ZM1314.2 1009.03C1311.07 1002 1302.86 998.781 1295.77 1001.83C1288.62 1004.9 1285.32 1013.18 1288.39 1020.33C1290.2 1024.54 1293.81 1027.42 1297.94 1028.44L1314.2 1009.03ZM1268.6 1063.48C1263.29 1063.04 1258.45 1059.59 1256.51 1054.25C1253.85 1046.93 1257.62 1038.85 1264.93 1036.19C1272.25 1033.53 1280.33 1037.31 1282.99 1044.62C1283.14 1045.02 1283.26 1045.43 1283.37 1045.84L1268.6 1063.48ZM1216.93 1092.61C1209.62 1095.27 1201.54 1091.5 1198.88 1084.18C1196.22 1076.87 1199.99 1068.79 1207.3 1066.13C1214.62 1063.47 1222.7 1067.24 1225.36 1074.56C1228.02 1081.87 1224.24 1089.95 1216.93 1092.61ZM1201.81 1163.59C1204.47 1170.9 1212.56 1174.67 1219.87 1172.02C1227.18 1169.36 1230.95 1161.28 1228.29 1153.96C1225.64 1146.65 1217.55 1142.88 1210.24 1145.54C1202.93 1148.19 1199.16 1156.28 1201.81 1163.59ZM1115.52 1108.7C1108.2 1111.36 1100.12 1107.59 1097.46 1100.28C1094.8 1092.96 1098.58 1084.88 1105.89 1082.22C1113.2 1079.56 1121.28 1083.34 1123.94 1090.65C1126.6 1097.96 1122.83 1106.04 1115.52 1108.7ZM1125.84 1001.59C1128.5 1008.9 1136.58 1012.68 1143.89 1010.02C1151.2 1007.36 1154.98 999.276 1152.32 991.964C1149.66 984.652 1141.58 980.879 1134.26 983.537C1126.95 986.195 1123.18 994.278 1125.84 1001.59ZM1143.88 1064.69C1136.57 1067.35 1128.49 1063.58 1125.83 1056.27C1123.17 1048.95 1126.94 1040.87 1134.26 1038.21C1141.57 1035.55 1149.65 1039.33 1152.31 1046.64C1154.97 1053.95 1151.19 1062.04 1143.88 1064.69ZM1144.87 1127.73C1147.53 1135.05 1155.62 1138.82 1162.93 1136.16C1170.24 1133.5 1174.01 1125.42 1171.36 1118.11C1168.7 1110.8 1160.61 1107.02 1153.3 1109.68C1145.99 1112.34 1142.22 1120.42 1144.87 1127.73ZM1380.54 844.891C1373.23 847.549 1365.15 843.776 1362.49 836.464C1359.83 829.151 1363.61 821.069 1370.92 818.41C1378.23 815.752 1386.31 819.525 1388.97 826.838C1391.63 834.15 1387.86 842.233 1380.54 844.891ZM1275.82 866.851C1278.48 874.164 1286.56 877.937 1293.87 875.278C1301.19 872.62 1304.96 864.537 1302.3 857.225C1299.64 849.912 1291.56 846.139 1284.25 848.798C1276.94 851.456 1273.16 859.539 1275.82 866.851ZM1146.17 936.511C1138.86 939.169 1130.78 935.396 1128.12 928.084C1125.46 920.771 1129.23 912.688 1136.54 910.03C1143.86 907.372 1151.94 911.145 1154.6 918.457C1157.26 925.77 1153.48 933.853 1146.17 936.511ZM1216.83 919.023C1219.48 926.335 1227.57 930.108 1234.88 927.45C1242.19 924.792 1245.96 916.709 1243.31 909.396C1240.65 902.084 1232.57 898.311 1225.25 900.969C1217.94 903.627 1214.17 911.71 1216.83 919.023ZM1212.41 966.242C1205.1 968.9 1197.02 965.127 1194.36 957.814C1191.7 950.502 1195.47 942.419 1202.79 939.761C1210.1 937.103 1218.18 940.876 1220.84 948.188C1223.5 955.501 1219.73 963.583 1212.41 966.242ZM1192.33 881.812C1194.99 889.124 1203.07 892.897 1210.38 890.239C1217.7 887.581 1221.47 879.498 1218.81 872.185C1216.15 864.873 1208.07 861.1 1200.76 863.758C1193.44 866.417 1189.67 874.499 1192.33 881.812ZM1118.5 860.05C1111.19 862.709 1103.11 858.936 1100.45 851.623C1097.79 844.311 1101.57 836.228 1108.88 833.57C1116.19 830.911 1124.27 834.684 1126.93 841.997C1129.59 849.309 1125.82 857.392 1118.5 860.05ZM1072.98 953.712C1075.64 961.024 1083.72 964.797 1091.04 962.139C1098.35 959.481 1102.12 951.398 1099.46 944.085C1096.81 936.773 1088.72 933 1081.41 935.658C1074.1 938.316 1070.32 946.399 1072.98 953.712ZM1035.48 794.698C1028.17 797.356 1020.08 793.583 1017.43 786.271C1014.77 778.959 1018.54 770.876 1025.85 768.217C1033.17 765.559 1041.25 769.332 1043.91 776.645C1046.56 783.957 1042.79 792.04 1035.48 794.698ZM1079.8 897.222C1082.46 904.534 1090.54 908.307 1097.85 905.649C1105.16 902.991 1108.94 894.908 1106.28 887.595C1103.62 880.283 1095.54 876.51 1088.23 879.168C1080.91 881.826 1077.14 889.909 1079.8 897.222ZM1179.55 719.853C1172.24 722.511 1164.16 718.738 1161.5 711.426C1158.84 704.113 1162.62 696.03 1169.93 693.372C1177.24 690.714 1185.32 694.487 1187.98 701.799C1190.64 709.112 1186.87 717.194 1179.55 719.853ZM1127.06 755.994C1129.72 763.306 1137.8 767.079 1145.12 764.421C1152.43 761.763 1156.2 753.68 1153.54 746.368C1150.89 739.055 1142.8 735.282 1135.49 737.94C1128.18 740.599 1124.4 748.681 1127.06 755.994ZM1094.69 811.723C1087.38 814.381 1079.29 810.608 1076.64 803.296C1073.98 795.983 1077.75 787.9 1085.06 785.242C1092.38 782.584 1100.46 786.357 1103.12 793.669C1105.78 800.982 1102 809.065 1094.69 811.723ZM1048.53 694.601C1051.19 701.914 1059.27 705.687 1066.59 703.028C1073.9 700.37 1077.67 692.287 1075.01 684.975C1072.36 677.662 1064.27 673.889 1056.96 676.548C1049.65 679.206 1045.87 687.289 1048.53 694.601ZM1071.1 746.359C1063.78 749.017 1055.7 745.244 1053.04 737.932C1050.38 730.62 1054.16 722.537 1061.47 719.879C1068.78 717.22 1076.86 720.993 1079.52 728.306C1082.18 735.618 1078.41 743.701 1071.1 746.359ZM1021.53 664.895C1024.19 672.207 1032.27 675.98 1039.58 673.322C1046.89 670.664 1050.67 662.581 1048.01 655.268C1045.35 647.956 1037.27 644.183 1029.96 646.841C1022.64 649.499 1018.87 657.582 1021.53 664.895ZM1224.03 667.906C1216.72 670.564 1208.63 666.791 1205.98 659.479C1203.32 652.166 1207.09 644.083 1214.4 641.425C1221.72 638.767 1229.8 642.54 1232.46 649.852C1235.12 657.165 1231.34 665.248 1224.03 667.906ZM1097.3 703.021C1099.96 710.333 1108.04 714.106 1115.35 711.448C1122.66 708.79 1126.44 700.707 1123.78 693.395C1121.12 686.082 1113.04 682.309 1105.72 684.968C1098.41 687.626 1094.64 695.709 1097.3 703.021ZM1158.67 805.607C1151.36 808.265 1143.27 804.493 1140.62 797.18C1137.96 789.868 1141.73 781.785 1149.04 779.127C1156.36 776.468 1164.44 780.241 1167.1 787.554C1169.75 794.866 1165.98 802.949 1158.67 805.607ZM972.743 714.345C975.401 721.658 983.484 725.431 990.796 722.773C998.109 720.114 1001.88 712.032 999.223 704.719C996.565 697.407 988.482 693.634 981.17 696.292C973.858 698.95 970.085 707.033 972.743 714.345ZM964.927 762.471C957.614 765.129 949.531 761.356 946.873 754.044C944.215 746.732 947.988 738.649 955.3 735.991C962.613 733.332 970.696 737.105 973.354 744.418C976.012 751.73 972.239 759.813 964.927 762.471ZM1213.71 1014.79C1210.64 1007.64 1202.35 1004.33 1195.2 1007.4C1188.05 1010.47 1184.75 1018.76 1187.82 1025.91C1190.89 1033.06 1199.17 1036.36 1206.32 1033.29C1213.47 1030.22 1216.78 1021.93 1213.71 1014.79ZM1295.11 903.59C1302.26 900.518 1310.54 903.824 1313.61 910.973C1316.68 918.121 1313.38 926.406 1306.23 929.478C1299.08 932.549 1290.8 929.243 1287.73 922.095C1284.65 914.946 1287.96 906.661 1295.11 903.59ZM1270.95 969.726C1267.88 962.577 1259.6 959.272 1252.45 962.343C1245.3 965.414 1241.99 973.699 1245.06 980.848C1248.14 987.997 1256.42 991.302 1263.57 988.231C1270.72 985.16 1274.02 976.875 1270.95 969.726ZM1322.91 959.525C1319.84 952.376 1311.55 949.071 1304.4 952.142C1297.25 955.213 1293.95 963.498 1297.02 970.647C1300.09 977.796 1308.38 981.101 1315.52 978.03C1322.67 974.959 1325.98 966.674 1322.91 959.525ZM1366.11 964.856C1373.26 961.785 1381.54 965.091 1384.61 972.239C1387.69 979.388 1384.38 987.673 1377.23 990.745C1370.08 993.816 1361.8 990.51 1358.73 983.361C1355.66 976.213 1358.96 967.928 1366.11 964.856ZM1419.78 981.093C1416.71 973.944 1408.42 970.639 1401.27 973.71C1394.13 976.781 1390.82 985.066 1393.89 992.215C1396.96 999.364 1405.25 1002.67 1412.4 999.598C1419.54 996.527 1422.85 988.242 1419.78 981.093ZM1176.59 834.495C1173.52 827.346 1165.24 824.041 1158.09 827.112C1150.94 830.183 1147.63 838.468 1150.71 845.617C1153.78 852.766 1162.06 856.071 1169.21 853C1176.36 849.929 1179.67 841.644 1176.59 834.495ZM1219.14 686.914C1226.29 683.843 1234.57 687.149 1237.64 694.297C1240.72 701.446 1237.41 709.731 1230.26 712.802C1223.11 715.874 1214.83 712.568 1211.76 705.419C1208.69 698.271 1211.99 689.986 1219.14 686.914ZM1231.95 823.387C1228.88 816.238 1220.6 812.933 1213.45 816.004C1206.3 819.075 1202.99 827.36 1206.06 834.509C1209.14 841.658 1217.42 844.963 1224.57 841.892C1231.72 838.821 1235.02 830.536 1231.95 823.387ZM1203.93 752.932C1211.08 749.861 1219.36 753.166 1222.43 760.315C1225.51 767.464 1222.2 775.749 1215.05 778.82C1207.9 781.891 1199.62 778.586 1196.55 771.437C1193.47 764.288 1196.78 756.003 1203.93 752.932ZM1362.62 876.042C1359.55 868.893 1351.27 865.588 1344.12 868.659C1336.97 871.73 1333.66 880.015 1336.74 887.164C1339.81 894.313 1348.09 897.618 1355.24 894.547C1362.39 891.476 1365.69 883.191 1362.62 876.042ZM1250.43 776.988C1257.58 773.917 1265.87 777.222 1268.94 784.371C1272.01 791.52 1268.7 799.805 1261.56 802.876C1254.41 805.947 1246.12 802.642 1243.05 795.493C1239.98 788.344 1243.29 780.059 1250.43 776.988ZM1109.47 637.332C1106.4 630.183 1098.11 626.878 1090.97 629.949C1083.82 633.02 1080.51 641.305 1083.58 648.454C1086.65 655.603 1094.94 658.908 1102.09 655.837C1109.24 652.766 1112.54 644.481 1109.47 637.332ZM1066.64 596.711C1073.79 593.64 1082.08 596.945 1085.15 604.094C1088.22 611.243 1084.91 619.528 1077.76 622.599C1070.62 625.67 1062.33 622.365 1059.26 615.216C1056.19 608.067 1059.49 599.782 1066.64 596.711ZM1122.57 557.352C1119.49 550.203 1111.21 546.898 1104.06 549.969C1096.91 553.04 1093.61 561.325 1096.68 568.474C1099.75 575.623 1108.03 578.928 1115.18 575.857C1122.33 572.786 1125.64 564.501 1122.57 557.352ZM1150.18 646.974C1157.33 643.903 1165.61 647.208 1168.68 654.357C1171.75 661.506 1168.45 669.791 1161.3 672.862C1154.15 675.933 1145.86 672.628 1142.79 665.479C1139.72 658.33 1143.03 650.045 1150.18 646.974ZM1159.85 580.168C1156.77 573.019 1148.49 569.714 1141.34 572.785C1134.19 575.856 1130.89 584.141 1133.96 591.29C1137.03 598.439 1145.31 601.744 1152.46 598.673C1159.61 595.602 1162.92 587.317 1159.85 580.168ZM1173.79 516.753C1180.94 513.681 1189.23 516.987 1192.3 524.136C1195.37 531.284 1192.06 539.569 1184.91 542.641C1177.76 545.712 1169.48 542.406 1166.41 535.258C1163.34 528.109 1166.64 519.824 1173.79 516.753ZM1283.04 591.077C1279.96 583.928 1271.68 580.623 1264.53 583.694C1257.38 586.765 1254.08 595.05 1257.15 602.199C1260.22 609.348 1268.5 612.653 1275.65 609.582C1282.8 606.511 1286.11 598.226 1283.04 591.077ZM1185.97 606.78C1193.12 603.708 1201.4 607.014 1204.47 614.163C1207.54 621.312 1204.24 629.597 1197.09 632.668C1189.94 635.739 1181.65 632.434 1178.58 625.285C1175.51 618.136 1178.82 609.851 1185.97 606.78ZM1167.97 490.897C1164.9 483.749 1156.62 480.443 1149.47 483.514C1142.32 486.586 1139.01 494.871 1142.09 502.02C1145.16 509.168 1153.44 512.474 1160.59 509.403C1167.74 506.331 1171.04 498.046 1167.97 490.897ZM1190.59 443.022C1197.74 439.95 1206.03 443.256 1209.1 450.405C1212.17 457.553 1208.86 465.838 1201.71 468.91C1194.57 471.981 1186.28 468.675 1183.21 461.527C1180.14 454.378 1183.44 446.093 1190.59 443.022ZM1232.69 484.212C1229.62 477.064 1221.33 473.758 1214.18 476.829C1207.03 479.901 1203.73 488.186 1206.8 495.334C1209.87 502.483 1218.15 505.789 1225.3 502.717C1232.45 499.646 1235.76 491.361 1232.69 484.212ZM1231.37 540.325C1238.52 537.254 1246.81 540.559 1249.88 547.708C1252.95 554.857 1249.65 563.142 1242.5 566.213C1235.35 569.284 1227.06 565.979 1223.99 558.83C1220.92 551.681 1224.23 543.396 1231.37 540.325ZM1276.48 443.382C1273.41 436.233 1265.12 432.928 1257.97 435.999C1250.83 439.07 1247.52 447.355 1250.59 454.504C1253.66 461.653 1261.95 464.958 1269.1 461.887C1276.24 458.816 1279.55 450.531 1276.48 443.382ZM1253.9 393.346C1261.05 390.275 1269.33 393.581 1272.4 400.73C1275.47 407.878 1272.17 416.163 1265.02 419.235C1257.87 422.306 1249.59 419 1246.51 411.852C1243.44 404.703 1246.75 396.418 1253.9 393.346ZM1299.38 542.983C1296.31 535.834 1288.02 532.529 1280.87 535.6C1273.72 538.671 1270.42 546.956 1273.49 554.105C1276.56 561.254 1284.85 564.559 1291.99 561.488C1299.14 558.417 1302.45 550.132 1299.38 542.983ZM1268.79 493.583C1275.94 490.512 1284.23 493.817 1287.3 500.966C1290.37 508.115 1287.06 516.4 1279.91 519.471C1272.77 522.542 1264.48 519.237 1261.41 512.088C1258.34 504.939 1261.64 496.654 1268.79 493.583ZM1351.96 769.722C1346.91 775.641 1347.61 784.533 1353.53 789.583C1359.45 794.633 1368.34 793.928 1373.39 788.009C1378.44 782.09 1377.74 773.197 1371.82 768.148C1365.9 763.098 1357.01 763.802 1351.96 769.722ZM1336.98 738.431C1331.07 733.381 1330.36 724.489 1335.41 718.57C1340.46 712.65 1349.35 711.946 1355.27 716.995C1361.19 722.045 1361.9 730.937 1356.85 736.857C1351.8 742.776 1342.9 743.481 1336.98 738.431ZM1286.87 758.672C1281.82 764.591 1282.52 773.483 1288.44 778.533C1294.36 783.583 1303.25 782.878 1308.3 776.959C1313.35 771.039 1312.65 762.147 1306.73 757.097C1300.81 752.048 1291.92 752.752 1286.87 758.672ZM1307.94 824.364C1302.02 819.315 1301.32 810.422 1306.37 804.503C1311.42 798.584 1320.31 797.879 1326.23 802.929C1332.15 807.979 1332.86 816.871 1327.81 822.79C1322.76 828.709 1313.86 829.414 1307.94 824.364ZM1305.71 651.591C1300.66 657.51 1301.37 666.402 1307.29 671.452C1313.21 676.502 1322.1 675.797 1327.15 669.878C1332.2 663.958 1331.49 655.066 1325.57 650.016C1319.65 644.967 1310.76 645.671 1305.71 651.591ZM1266.67 696.855C1260.75 691.806 1260.05 682.913 1265.1 676.994C1270.15 671.075 1279.04 670.37 1284.96 675.42C1290.88 680.47 1291.58 689.362 1286.53 695.281C1281.48 701.2 1272.59 701.905 1266.67 696.855ZM1308.6 1059.05C1303.55 1064.97 1304.25 1073.87 1310.17 1078.92C1316.09 1083.97 1324.98 1083.26 1330.03 1077.34C1335.08 1071.42 1334.38 1062.53 1328.46 1057.48C1322.54 1052.43 1313.65 1053.14 1308.6 1059.05ZM1310.7 615.869C1304.78 610.819 1304.07 601.927 1309.12 596.007C1314.17 590.088 1323.07 589.383 1328.99 594.433C1334.91 599.483 1335.61 608.375 1330.56 614.295C1325.51 620.214 1316.62 620.919 1310.7 615.869ZM1273.49 722.143C1268.44 728.062 1269.14 736.955 1275.06 742.004C1280.98 747.054 1289.87 746.349 1294.92 740.43C1299.97 734.511 1299.27 725.619 1293.35 720.569C1287.43 715.519 1278.54 716.224 1273.49 722.143ZM1460 1213.94C1454.08 1208.89 1453.37 1200 1458.42 1194.08C1463.47 1188.16 1472.37 1187.46 1478.28 1192.51C1484.2 1197.56 1484.91 1206.45 1479.86 1212.37C1474.81 1218.29 1465.92 1218.99 1460 1213.94ZM1441.88 1142.93C1436.83 1148.85 1437.53 1157.74 1443.45 1162.79C1449.37 1167.84 1458.26 1167.14 1463.31 1161.22C1468.36 1155.3 1467.66 1146.41 1461.74 1141.36C1455.82 1136.31 1446.93 1137.01 1441.88 1142.93ZM1479.62 1263.39C1473.7 1258.34 1472.99 1249.45 1478.04 1243.53C1483.09 1237.61 1491.99 1236.9 1497.91 1241.95C1503.82 1247 1504.53 1255.9 1499.48 1261.82C1494.43 1267.73 1485.54 1268.44 1479.62 1263.39ZM1339.88 1203.8C1334.83 1209.72 1335.54 1218.62 1341.46 1223.67C1347.38 1228.72 1356.27 1228.01 1361.32 1222.09C1366.37 1216.17 1365.67 1207.28 1359.75 1202.23C1353.83 1197.18 1344.93 1197.89 1339.88 1203.8ZM1415.19 1240.47C1409.27 1235.42 1408.57 1226.52 1413.62 1220.6C1418.67 1214.69 1427.56 1213.98 1433.48 1219.03C1439.4 1224.08 1440.1 1232.97 1435.05 1238.89C1430 1244.81 1421.11 1245.52 1415.19 1240.47ZM1432.01 1084.48C1426.96 1090.4 1427.67 1099.3 1433.59 1104.34C1439.51 1109.39 1448.4 1108.69 1453.45 1102.77C1458.5 1096.85 1457.79 1087.96 1451.87 1082.91C1445.96 1077.86 1437.06 1078.56 1432.01 1084.48ZM1399.48 1143.79C1393.56 1138.74 1392.85 1129.85 1397.9 1123.93C1402.95 1118.01 1411.84 1117.31 1417.76 1122.36C1423.68 1127.41 1424.39 1136.3 1419.34 1142.22C1414.29 1148.14 1405.4 1148.84 1399.48 1143.79ZM1405.7 1040.47C1400.65 1046.39 1401.36 1055.28 1407.28 1060.33C1413.2 1065.38 1422.09 1064.67 1427.14 1058.75C1432.19 1052.83 1431.48 1043.94 1425.56 1038.89C1419.65 1033.84 1410.75 1034.55 1405.7 1040.47ZM1376.47 1105.65C1370.55 1100.6 1369.84 1091.7 1374.89 1085.78C1379.94 1079.87 1388.83 1079.16 1394.75 1084.21C1400.67 1089.26 1401.38 1098.15 1396.33 1104.07C1391.28 1109.99 1382.39 1110.7 1376.47 1105.65ZM1297.47 1113.05C1292.42 1118.97 1293.13 1127.86 1299.05 1132.91C1304.97 1137.96 1313.86 1137.25 1318.91 1131.34C1323.96 1125.42 1323.25 1116.52 1317.33 1111.47C1311.42 1106.42 1302.52 1107.13 1297.47 1113.05ZM1252.54 1108.85C1246.62 1103.8 1245.92 1094.91 1250.97 1088.99C1256.02 1083.07 1264.91 1082.37 1270.83 1087.42C1276.75 1092.47 1277.45 1101.36 1272.4 1107.28C1267.35 1113.2 1258.46 1113.9 1252.54 1108.85ZM1279.54 1168.86C1274.49 1174.78 1275.2 1183.67 1281.12 1188.72C1287.04 1193.77 1295.93 1193.06 1300.98 1187.14C1306.03 1181.22 1305.32 1172.33 1299.4 1167.28C1293.48 1162.23 1284.59 1162.94 1279.54 1168.86ZM1049.26 1112C1043.34 1106.95 1042.64 1098.06 1047.69 1092.14C1052.74 1086.22 1061.63 1085.51 1067.55 1090.56C1073.47 1095.61 1074.18 1104.51 1069.13 1110.42C1064.08 1116.34 1055.18 1117.05 1049.26 1112ZM1347.61 1150.72C1342.56 1156.64 1343.26 1165.53 1349.18 1170.58C1355.1 1175.63 1363.99 1174.92 1369.04 1169C1374.09 1163.09 1373.39 1154.19 1367.47 1149.14C1361.55 1144.09 1352.66 1144.8 1347.61 1150.72ZM1355.78 1044.89C1349.86 1039.84 1349.16 1030.95 1354.21 1025.03C1359.26 1019.11 1368.15 1018.41 1374.07 1023.46C1379.99 1028.51 1380.69 1037.4 1375.64 1043.32C1370.59 1049.24 1361.7 1049.94 1355.78 1044.89Z" fill="#7F6DEE"/>
<rect x="1033" y="891.626" width="31.1808" height="10.3913" rx="5.19565" transform="rotate(-34.4218 1033 891.626)" fill="#7765E6"/>
<rect x="1146" y="874.37" width="28.9587" height="10.3913" rx="5.19565" transform="rotate(-34.4218 1146 874.37)" fill="#7765E6"/>
<rect x="1025" y="868.325" width="21.8028" height="10.3913" rx="5.19565" transform="rotate(-34.4218 1025 868.325)" fill="#7765E6"/>
<path opacity="0.8" fill-rule="evenodd" clip-rule="evenodd" d="M375.595 78.8994C374.252 77.0982 371.671 76.6799 369.829 77.965L369.336 78.3089C367.493 79.594 367.088 82.0959 368.43 83.897V83.897C369.772 85.6982 372.354 86.1165 374.196 84.8314L374.689 84.4875C376.531 83.2024 376.937 80.7005 375.595 78.8994V78.8994ZM425.735 44.0204C424.393 42.2193 421.811 41.8009 419.969 43.086L385.839 66.8934C383.997 68.1785 383.592 70.6804 384.934 72.4816V72.4816C386.276 74.2827 388.857 74.7011 390.7 73.416L424.829 49.6086C426.671 48.3235 427.077 45.8216 425.735 44.0204V44.0204ZM456.522 46.4808C455.18 44.6796 452.598 44.2613 450.756 45.5464L437.94 54.4863C436.098 55.7714 435.692 58.2733 437.035 60.0745V60.0745C438.377 61.8756 440.958 62.294 442.8 61.0089L455.616 52.0689C457.459 50.7838 457.864 48.2819 456.522 46.4808V46.4808ZM465.446 65.9204C464.104 64.1192 464.509 61.6173 466.351 60.3322L480.621 50.3785C482.463 49.0934 485.044 49.5117 486.386 51.3129V51.3129C487.729 53.114 487.323 55.6159 485.481 56.901L471.212 66.8547C469.369 68.1398 466.788 67.7215 465.446 65.9204V65.9204ZM516.453 53.6434C515.11 51.8423 512.529 51.4239 510.687 52.709L493.662 64.5851C491.819 65.8702 491.414 68.3721 492.756 70.1732V70.1732C494.098 71.9744 496.68 72.3927 498.522 71.1076L515.547 59.2316C517.389 57.9465 517.795 55.4446 516.453 53.6434V53.6434ZM472.43 79.5537C471.088 77.7526 471.493 75.2507 473.336 73.9656L475.685 72.3268C477.527 71.0417 480.109 71.4601 481.451 73.2612V73.2612C482.793 75.0624 482.388 77.5643 480.545 78.8494L478.196 80.4881C476.354 81.7732 473.772 81.3548 472.43 79.5537V79.5537ZM445.169 73.8043C444.308 72.6485 444.568 71.043 445.75 70.2183V70.2183C446.932 69.3936 448.589 69.6621 449.45 70.8179L451.191 73.1548C452.053 74.3106 451.793 75.9162 450.61 76.7408V76.7408C449.428 77.5655 447.772 77.297 446.91 76.1412L445.169 73.8043ZM423.977 66.0808C422.634 64.2796 420.053 63.8613 418.211 65.1464L416.571 66.2901C414.729 67.5752 414.323 70.0771 415.666 71.8782V71.8782C417.008 73.6794 419.589 74.0977 421.431 72.8126L423.071 71.6689C424.913 70.3838 425.319 67.8819 423.977 66.0808V66.0808Z" fill="#FFBFC4" fill-opacity="0.4"/>
<g opacity="0.3">
<path fill-rule="evenodd" clip-rule="evenodd" d="M613.092 -38.1824C614.747 -39.2801 616.978 -39.1327 618.428 -37.7544V-37.7544C620.33 -35.9454 619.996 -32.9424 617.824 -31.5016L498.547 47.6127C496.666 48.8604 494.081 48.3766 492.774 46.532V46.532C491.467 44.6874 491.933 42.1806 493.814 40.9328L613.092 -38.1824ZM628.242 -20.4105C629.549 -18.5659 629.084 -16.0591 627.202 -14.8113L527.834 51.0981C525.953 52.3459 523.368 51.8621 522.061 50.0175V50.0175C520.754 48.1729 521.22 45.666 523.101 44.4182L622.47 -21.4912C624.351 -22.7389 626.935 -22.2551 628.242 -20.4105V-20.4105ZM467.762 40.211C469.069 42.0556 471.653 42.5394 473.534 41.2916L587.643 -34.3947C589.524 -35.6425 589.99 -38.1494 588.683 -39.994V-39.994C587.376 -41.8386 584.791 -42.3224 582.91 -41.0746L468.801 34.6117C466.92 35.8595 466.455 38.3664 467.762 40.211V40.211ZM558.917 -43.1617C560.224 -41.3172 559.758 -38.8103 557.877 -37.5625L440.24 40.4644C438.358 41.7122 435.774 41.2284 434.467 39.3838V39.3838C433.16 37.5392 433.625 35.0323 435.507 33.7845L553.144 -44.2424C555.025 -45.4901 557.61 -45.0063 558.917 -43.1617V-43.1617Z" fill="#FFBFC4"/>
</g>
<path fill-rule="evenodd" clip-rule="evenodd" d="M203.629 137.669C205.132 136.302 206.581 134.87 207.974 133.372C208.967 132.304 209.925 131.209 210.848 130.09L-172.63 -226.492C-173.68 -225.491 -174.702 -224.456 -175.695 -223.387C-177.088 -221.889 -178.411 -220.34 -179.665 -218.742L203.629 137.669ZM192.27 146.162L-187.311 -206.797C-188.991 -203.532 -190.452 -200.124 -191.698 -196.584L182.402 151.278C185.843 149.779 189.136 148.074 192.27 146.162ZM167.336 156.324L-195.636 -181.191C-196.348 -176.995 -196.815 -172.662 -197.042 -168.207L154.488 158.668C158.916 158.118 163.203 157.338 167.336 156.324ZM135.036 159.636L-196.595 -148.735C-196.105 -143.369 -195.32 -137.871 -194.249 -132.262L118.436 158.492C124.108 159.153 129.648 159.536 135.036 159.636ZM92.9746 153.872L-187.793 -107.204C-185.493 -100.034 -182.783 -92.7423 -179.675 -85.363L70.6023 147.36C78.1877 149.924 85.6573 152.098 92.9746 153.872ZM33.9525 132.336L-162.03 -49.9004C-155.177 -37.9317 -147.378 -25.8845 -138.683 -13.8993L-3.64841 111.664C8.93634 119.466 21.5178 126.37 33.9525 132.336ZM-161.522 -235.218L218.745 118.377C220.489 115.175 222.015 111.828 223.328 108.348L-151.851 -240.518C-155.227 -238.956 -158.454 -237.19 -161.522 -235.218ZM-137.066 -245.825L227.548 93.2159C228.334 89.0924 228.878 84.8314 229.185 80.4465L-124.449 -248.384C-128.8 -247.76 -133.01 -246.908 -137.066 -245.825ZM-105.347 -249.677L229.088 61.301C228.696 56.0314 228.015 50.6304 227.052 45.1169L-89.0577 -248.822C-94.6265 -249.382 -100.063 -249.669 -105.347 -249.677ZM-64.122 -244.691L221.122 20.5468C218.99 13.5478 216.462 6.42517 213.548 -0.787517L-42.2941 -238.685C-49.6993 -241.068 -56.9867 -243.073 -64.122 -244.691ZM-6.85514 -224.787L197.114 -35.1241C190.892 -46.402 183.822 -57.7671 175.943 -69.1013L28.5692 -206.139C16.693 -213.174 4.84458 -219.401 -6.85514 -224.787Z" fill="#7F6DEE"/>
</g>
<defs>
<clipPath id="clip0">
<rect width="1190" height="900" fill="white"/>
</clipPath>
</defs>
</svg>
